<svg width="46" height="46" viewBox="0 0 46 46" fill="none" xmlns="http://www.w3.org/2000/svg">
<g clip-path="url(#clip0_21_135)">
<path d="M34.163 8.12564H11.7012C9.6336 8.12564 7.95752 9.80172 7.95752 11.8693V34.3311C7.95752 36.3986 9.6336 38.0747 11.7012 38.0747H34.163C36.2305 38.0747 37.9066 36.3986 37.9066 34.3311V11.8693C37.9066 9.80172 36.2305 8.12564 34.163 8.12564Z" stroke="#8777FC" stroke-width="4.21783" stroke-linecap="round" stroke-linejoin="round"/>
<path d="M28.5476 17.4847H17.3167V28.7156H28.5476V17.4847Z" stroke="#8777FC" stroke-width="4.21783" stroke-linecap="round" stroke-linejoin="round"/>
<path d="M17.3167 2.51019V8.12564" stroke="#8777FC" stroke-width="4.21783" stroke-linecap="round" stroke-linejoin="round"/>
<path d="M28.5475 2.51019V8.12564" stroke="#8777FC" stroke-width="4.21783" stroke-linecap="round" stroke-linejoin="round"/>
<path d="M17.3167 38.0747V43.6901" stroke="#8777FC" stroke-width="4.21783" stroke-linecap="round" stroke-linejoin="round"/>
<path d="M28.5475 38.0747V43.6901" stroke="#8777FC" stroke-width="4.21783" stroke-linecap="round" stroke-linejoin="round"/>
<path d="M37.9066 17.4847H43.5221" stroke="#8777FC" stroke-width="4.21783" stroke-linecap="round" stroke-linejoin="round"/>
<path d="M37.9066 26.8438H43.5221" stroke="#8777FC" stroke-width="4.21783" stroke-linecap="round" stroke-linejoin="round"/>
<path d="M2.34216 17.4847H7.95761" stroke="#8777FC" stroke-width="4.21783" stroke-linecap="round" stroke-linejoin="round"/>
<path d="M2.34216 26.8438H7.95761" stroke="#8777FC" stroke-width="4.21783" stroke-linecap="round" stroke-linejoin="round"/>
</g>
<defs>
<clipPath id="clip0_21_135">
<rect width="44.9236" height="44.9236" fill="white" transform="translate(0.470337 0.638367)"/>
</clipPath>
</defs>
</svg>
