<svg width="47" height="48" viewBox="0 0 47 48" fill="none" xmlns="http://www.w3.org/2000/svg">
<path d="M19.5833 25.8025C20.4243 26.942 21.4973 27.8849 22.7295 28.5672C23.9616 29.2495 25.3242 29.6552 26.7247 29.7568C28.1252 29.8585 29.5308 29.6537 30.8464 29.1563C32.1619 28.659 33.3565 27.8807 34.3491 26.8743L40.2241 20.9199C42.0078 19.0482 42.9947 16.5414 42.9724 13.9393C42.9501 11.3373 41.9203 8.84822 40.1049 7.00823C38.2894 5.16824 35.8335 4.12455 33.2662 4.10194C30.6989 4.07933 28.2255 5.07961 26.3787 6.88734L23.0104 10.2813" stroke="#197BFF" stroke-width="5.07" stroke-linecap="round" stroke-linejoin="round"/>
<path d="M27.4167 21.8328C26.5757 20.6932 25.5027 19.7503 24.2705 19.0681C23.0384 18.3858 21.6758 17.98 20.2753 17.8784C18.8748 17.7767 17.4692 17.9815 16.1536 18.4789C14.8381 18.9762 13.6435 19.7545 12.6509 20.761L6.77586 26.7154C4.99223 28.587 4.00528 31.0939 4.02759 33.6959C4.0499 36.2979 5.07968 38.787 6.89513 40.627C8.71059 42.467 11.1665 43.5107 13.7338 43.5333C16.3011 43.5559 18.7745 42.5556 20.6213 40.7479L23.97 37.3539" stroke="#197BFF" stroke-width="5.07" stroke-linecap="round" stroke-linejoin="round"/>
</svg>
