<svg width="41" height="41" viewBox="0 0 41 41" fill="none" xmlns="http://www.w3.org/2000/svg">
<path d="M34.1041 3.53105H6.92813C5.05202 3.53105 3.53113 5.05194 3.53113 6.92805V13.7221C3.53113 15.5982 5.05202 17.1191 6.92813 17.1191H34.1041C35.9802 17.1191 37.5011 15.5982 37.5011 13.7221V6.92805C37.5011 5.05194 35.9802 3.53105 34.1041 3.53105Z" stroke="#8777FC" stroke-width="4.21783" stroke-linecap="round" stroke-linejoin="round"/>
<path d="M34.1041 23.9131H6.92813C5.05202 23.9131 3.53113 25.4339 3.53113 27.3101V34.1041C3.53113 35.9802 5.05202 37.5011 6.92813 37.5011H34.1041C35.9802 37.5011 37.5011 35.9802 37.5011 34.1041V27.3101C37.5011 25.4339 35.9802 23.9131 34.1041 23.9131Z" stroke="#8777FC" stroke-width="4.21783" stroke-linecap="round" stroke-linejoin="round"/>
<path d="M10.3251 10.325H10.3428" stroke="#8777FC" stroke-width="4.21783" stroke-linecap="round" stroke-linejoin="round"/>
<path d="M10.3251 30.7071H10.3428" stroke="#8777FC" stroke-width="4.21783" stroke-linecap="round" stroke-linejoin="round"/>
</svg>
