<svg width="44" height="44" viewBox="0 0 44 44" fill="none" xmlns="http://www.w3.org/2000/svg">
<g clip-path="url(#clip0_21_167)">
<path d="M29.1421 29.1422L21.9321 21.9322L14.7222 29.1422" stroke="#8777FC" stroke-width="4.21783" stroke-linecap="round" stroke-linejoin="round"/>
<path d="M21.9321 21.9322V38.1546" stroke="#8777FC" stroke-width="4.21783" stroke-linecap="round" stroke-linejoin="round"/>
<path d="M37.055 33.4501C38.813 32.4917 40.2018 30.9751 41.0022 29.1397C41.8026 27.3043 41.969 25.2546 41.4751 23.3142C40.9812 21.3737 39.8551 19.653 38.2747 18.4236C36.6942 17.1942 34.7494 16.5261 32.747 16.5247H30.4759C29.9303 14.4145 28.9134 12.4553 27.5017 10.7946C26.09 9.13391 24.3201 7.81484 22.3252 6.93659C20.3303 6.05834 18.1623 5.64376 15.9841 5.72401C13.8059 5.80427 11.6742 6.37727 9.74938 7.39994C7.82452 8.42261 6.15654 9.86833 4.87084 11.6284C3.58515 13.3885 2.71519 15.4172 2.32637 17.5619C1.93756 19.7066 2.04 21.9115 2.62601 24.011C3.21201 26.1104 4.26632 28.0496 5.70968 29.6829" stroke="#8777FC" stroke-width="4.21783" stroke-linecap="round" stroke-linejoin="round"/>
<path d="M29.1421 29.1422L21.9321 21.9322L14.7222 29.1422" stroke="#8777FC" stroke-width="4.21783" stroke-linecap="round" stroke-linejoin="round"/>
</g>
<defs>
<clipPath id="clip0_21_167">
<rect width="43.2598" height="43.2598" fill="white" transform="translate(0.302246 0.30233)"/>
</clipPath>
</defs>
</svg>
